<svg width="27" height="43" viewBox="0 0 33 48" fill="none" xmlns="http://www.w3.org/2000/svg">
  <path
    d="M16.1077 47.0618C16.0574 46.925 15.8049 46.005 15.5465 45.0169C14.7293 41.8919 13.3157 38.5315 11.3974 35.1532C10.2962 33.2138 10.0969 32.9047 6.87928 28.1396C1.68007 20.4403 0.766364 18.2783 0.958492 14.1317C1.13461 10.3317 2.48077 7.48473 5.40262 4.73172C7.82795 2.44669 10.5199 1.12866 13.7946 0.623151C21.9097 -0.629653 29.7827 4.46013 31.3779 11.9901C31.7496 13.7456 31.6672 16.7669 31.2025 18.4082C30.6928 20.2088 28.6476 23.8517 25.7573 28.1072C20.5404 35.7883 18.565 39.6247 17.086 44.9486C16.5134 47.0097 16.2766 47.5214 16.1077 47.0618V47.0618Z"
    fill="#E22C29" stroke="white" stroke-width="1.0239" />
  <path
    d="M22.703 16.912C22.703 20.095 19.867 22.675 16.367 22.675C12.868 22.675 10.031 20.095 10.031 16.912C10.031 13.73 12.868 11.15 16.367 11.15C19.866 11.15 22.703 13.73 22.703 16.912Z"
    fill="#6D0A0F" />
</svg>
